<?xml version="1.0" encoding="utf-8"?>
<!-- Generator: Adobe Illustrator 27.3.1, SVG Export Plug-In . SVG Version: 6.00 Build 0)  -->
<svg version="1.1" id="Warstwa_1" xmlns="http://www.w3.org/2000/svg" xmlns:xlink="http://www.w3.org/1999/xlink" x="0px" y="0px"
	 viewBox="0 0 752 367" style="enable-background:new 0 0 752 367;" xml:space="preserve">
<g>
	<g>
		<path d="M12,290.2h31.1c4.2,0,7.8,0.8,10.7,2.3c2.9,1.5,5,3.5,6.5,6c1.4,2.5,2.2,5.3,2.2,8.4c0,3.3-0.9,6.2-2.6,8.6
			c-1.8,2.4-4.2,4.1-7.3,5.1c4,1.1,7.1,3,9.4,5.6c2.2,2.6,3.4,6.1,3.4,10.4c0,3.6-0.8,6.8-2.5,9.6c-1.7,2.7-4.1,4.8-7.3,6.3
			c-3.2,1.5-6.9,2.2-11.3,2.2H12V290.2z M45.9,316.1c1.5-0.6,2.7-1.6,3.6-3c0.9-1.3,1.3-3,1.3-5c0-2.8-0.9-4.9-2.7-6.3
			c-1.8-1.4-4.3-2-7.4-2H22.6v17.3h18.1C42.6,317.1,44.4,316.8,45.9,316.1z M47.2,344.7c1.9-0.5,3.5-1.4,4.7-2.7
			c1.2-1.4,1.8-3.3,1.8-5.9c0-2.6-0.6-4.5-1.8-5.9c-1.2-1.3-2.8-2.2-4.8-2.7c-1.9-0.5-4.2-0.7-6.9-0.7H22.6v18.7h17.7
			C43,345.4,45.3,345.1,47.2,344.7z"/>
		<path d="M98.4,334.7L73,290.2h12.1l18.7,34.6l18.7-34.6h11.9L109,334.7v20.1H98.4V334.7z"/>
		<path d="M177.1,290.2H207c4.5,0,8.4,0.9,11.7,2.8c3.3,1.8,5.9,4.4,7.7,7.7c1.8,3.3,2.7,7,2.7,11c0,4.1-0.9,7.8-2.7,11.1
			c-1.8,3.3-4.3,5.9-7.7,7.8c-3.3,1.9-7.2,2.8-11.7,2.8h-19.6v21.4h-10.3V290.2z M214.3,320.9c2.4-2.1,3.6-5.1,3.6-9.1
			c0-4-1.2-7-3.5-9.1s-5.4-3-9.3-3h-17.6V324h17.6C208.9,324,212,323,214.3,320.9z"/>
		<path d="M260.7,290.2h12.3l26.3,64.6h-11.5l-4.7-12.1h-32.4l-4.7,12.1h-11.5L260.7,290.2z M279.2,333.4l-12.6-31.1l-12.3,31.1
			H279.2z"/>
		<path d="M319.9,299.8h-20.7v-9.6h52.3v9.5l-21,0.1v55h-10.6V299.8z"/>
		<path d="M368.2,290.2h29.1c4.6,0,8.6,0.8,11.8,2.4c3.3,1.6,5.8,4,7.5,7c1.7,3,2.6,6.5,2.6,10.5c0,4.6-1.1,8.4-3.2,11.6
			c-2.2,3.2-5.2,5.5-9.2,6.9c1.2,0.7,2.2,1.7,3,2.9c0.9,1.2,1.8,2.7,2.9,4.5c0.1,0.1,0.1,0.1,0,0.2l10.8,18.7h-12l-9.9-16.9
			l-0.3-0.6c-1-1.7-1.9-3-2.8-3.9c-0.9-1-2-1.8-3.2-2.4c-1.2-0.6-2.7-1-4.5-1h-11.9v24.8h-10.6V290.2z M404.7,318.3
			c2.2-1.6,3.2-4.3,3.2-8.1c0-3.8-1.1-6.5-3.2-8.1c-2.2-1.6-5.2-2.4-9.2-2.4h-16.6v21.1h16.6C399.5,320.7,402.6,319.9,404.7,318.3z"
			/>
		<path d="M451.3,352.2c-4.8-2.7-8.5-6.6-11.2-11.7c-2.7-5.1-4-11.1-4-18c0-6.9,1.3-12.9,4-18c2.7-5.1,6.4-9,11.2-11.7
			c4.8-2.7,10.2-4.1,16.2-4.1c6.1,0,11.5,1.4,16.3,4.1c4.8,2.7,8.5,6.6,11.2,11.7c2.7,5.1,4,11.1,4,18c0,6.9-1.3,12.9-4,18
			c-2.7,5.1-6.4,9-11.2,11.7c-4.8,2.7-10.2,4.1-16.3,4.1C461.5,356.3,456.1,354.9,451.3,352.2z M450.1,335.6
			c1.6,3.6,3.9,6.3,6.9,8.2c3,1.9,6.5,2.8,10.6,2.8c4.1,0,7.7-0.9,10.7-2.8c3-1.9,5.3-4.6,6.9-8.2c1.6-3.6,2.4-8,2.4-13.1
			c0-5.1-0.8-9.5-2.4-13.1c-1.6-3.6-3.9-6.3-6.9-8.2c-3-1.9-6.5-2.8-10.7-2.8c-4.1,0-7.6,0.9-10.6,2.8c-3,1.9-5.3,4.6-6.9,8.2
			c-1.6,3.6-2.4,8-2.4,13.1C447.7,327.7,448.5,332,450.1,335.6z"/>
		<path d="M517.9,290.2h10.4l35.1,47v-47h10.3v64.6h-10.3l-35.1-46.8v46.8h-10.3V290.2z"/>
		<path d="M596.6,290.2h10.6v64.6h-10.6V290.2z"/>
		<path d="M644.7,299.8h-20.7v-9.6h52.3v9.5l-21,0.1v55h-10.6V299.8z"/>
		<path d="M693.1,290.2h45.4v9.9h-34.8v17.5h33.9v9.2h-33.9V345h35.7v9.9h-46.4V290.2z"/>
	</g>
	<g>
		<path d="M43.8,184.6c-11.4-3.1-21.7-7.7-30.8-13.9v-39.4c10,8.7,20.7,15.1,32.3,19.1c11.5,4,22.6,6.1,33.2,6.1
			c6.3,0,11.2-0.9,14.6-2.7c3.4-1.8,5.1-4.5,5.1-7.9c0-2.4-1.2-4.3-3.6-5.9c-2.4-1.6-5.6-2.8-9.6-3.8s-9.1-1.9-15.3-2.8
			c-11.4-1.6-21-3.6-28.8-5.9c-7.8-2.4-14.6-6.4-20.3-12.1c-5.7-5.7-8.5-13.7-8.5-24c0-10.1,3-18.6,9-25.4
			c6-6.8,13.8-11.8,23.4-14.9c9.6-3.2,20.2-4.7,31.9-4.7c13,0,24.6,1.5,34.9,4.4c10.3,2.9,19.2,7.1,26.8,12.5v36.5
			c-9-7.3-18.6-12.7-28.8-16.1c-10.2-3.5-20-5.2-29.3-5.2c-5.1,0-9.4,0.4-13.1,1.2c-3.6,0.8-6.3,1.9-7.9,3.3s-2.5,3.2-2.5,5.5
			c0,2.5,1.1,4.5,3.3,6.1c2.2,1.5,5.3,2.7,9.1,3.7c3.9,0.9,8.8,1.7,14.8,2.4c11.4,1.9,21.1,4,29.1,6.3c8,2.3,14.9,6.5,20.9,12.6
			c5.9,6.1,8.8,14.4,8.7,25c0,10.1-2.5,18.5-7.4,25.2c-4.9,6.6-12,11.6-21.2,14.9c-9.3,3.3-20.3,5-33.1,5
			C67.4,189.2,55.2,187.7,43.8,184.6z"/>
		<path d="M176.3,175.2c-8.9-9.3-13.4-24-13.4-44.1V50.2h47.5v68.1c0,11.9,2,20.2,6.1,25c4,4.8,9.6,7.2,16.7,7.2c4.7,0,9.3-1,13.6-3
			c4.3-2,7.8-5.3,10.4-9.8c2.6-4.6,3.9-10.7,3.9-18.3l0.5-69.3h47.9v135h-44.1l-1.9-27.5c-5.9,10.3-13,18.1-21.5,23.5
			c-8.5,5.4-18.4,8.1-29.8,8.1C197.2,189.2,185.2,184.6,176.3,175.2z"/>
		<path d="M338,50.2h46.3l1.9,27.5c3.2-6,7.1-11.4,11.9-16.1c4.7-4.7,10.4-8.5,16.8-11.3c6.5-2.8,13.8-4.2,21.8-4.2
			c11.1,0,21,2.8,29.7,8.5c8.7,5.7,15.5,13.9,20.4,24.6c4.9,10.7,7.4,23.3,7.4,37.8c0,14.7-2.5,27.6-7.5,38.6
			c-5,11-11.9,19.3-20.6,25s-18.7,8.5-29.8,8.5c-11.5,0-21.6-2.9-30-8.8c-8.5-5.9-15.1-13.4-20-22.8v67.9H338V50.2z M429.6,149.2
			c4.6-2.6,8.2-6.6,10.8-12.1c2.6-5.5,3.9-12.1,3.9-19.8c0-7.7-1.3-14.3-3.8-19.6c-2.5-5.3-6.1-9.2-10.8-11.7
			c-4.7-2.5-9.8-3.8-15.3-3.8c-5.7,0-10.8,1.3-15.3,3.8c-4.5,2.5-8.1,6.4-10.9,11.7c-2.8,5.3-4.2,11.8-4.2,19.6
			c0.2,7.9,1.6,14.6,4.3,19.9c2.7,5.4,6.3,9.4,10.8,12c4.5,2.6,9.6,3.9,15.3,3.9C419.9,153.2,425,151.8,429.6,149.2z"/>
		<path d="M514.8,50.2H561l1.9,27.5c3.2-6,7.1-11.4,11.9-16.1c4.7-4.7,10.4-8.5,16.8-11.3c6.5-2.8,13.8-4.2,21.8-4.2
			c11.1,0,21,2.8,29.7,8.5c8.7,5.7,15.5,13.9,20.4,24.6c4.9,10.7,7.4,23.3,7.4,37.8c0,14.7-2.5,27.6-7.5,38.6
			c-5,11-11.9,19.3-20.6,25s-18.7,8.5-29.8,8.5c-11.5,0-21.6-2.9-30-8.8c-8.5-5.9-15.1-13.4-20-22.8v67.9h-48.2V50.2z M606.4,149.2
			c4.6-2.6,8.2-6.6,10.8-12.1c2.6-5.5,3.9-12.1,3.9-19.8c0-7.7-1.3-14.3-3.8-19.6c-2.5-5.3-6.1-9.2-10.8-11.7
			c-4.7-2.5-9.8-3.8-15.3-3.8c-5.7,0-10.8,1.3-15.3,3.8c-4.5,2.5-8.1,6.4-10.9,11.7c-2.8,5.3-4.2,11.8-4.2,19.6
			c0.2,7.9,1.6,14.6,4.3,19.9c2.7,5.4,6.3,9.4,10.8,12c4.5,2.6,9.6,3.9,15.3,3.9C596.7,153.2,601.8,151.8,606.4,149.2z"/>
		<path d="M691.5,11.7h47.9v26.6h-47.9V11.7z M691.5,50.2h47.9v135h-47.9V50.2z"/>
	</g>
</g>
</svg>
